<svg xmlns="http://www.w3.org/2000/svg" viewBox="0 0 32 32">
  <defs>
    <linearGradient id="e04zxh132a" x1="827.5" y1="4690.5" x2="838.5" y2="4690.5" gradientTransform="translate(-823.5 -4669.5)" gradientUnits="userSpaceOnUse">
      <stop offset=".1"></stop>
      <stop offset=".888" stop-opacity="0"></stop>
    </linearGradient>
    <linearGradient id="v006pf6f7c" y1="32" x2="32" gradientUnits="userSpaceOnUse">
      <stop offset=".1" stop-color="#a56eff"></stop>
      <stop offset=".9" stop-color="#0f62fe"></stop>
    </linearGradient>
    <mask id="p8z3nx88lb" x="0" y="0" width="32" height="32" maskUnits="userSpaceOnUse">
      <circle cx="7" cy="25" r="1" fill="#fff"></circle>
      <path d="M28 20h-2v2h2v6H4v-6h10v-2H4a2 2 0 0 0-2 2v6a2 2 0 0 0 2 2h24a2 2 0 0 0 2-2v-6a2 2 0 0 0-2-2z" fill="#fff"></path>
      <path transform="rotate(180 9.5 21)" fill="url(#e04zxh132a)" d="M4 19h11v4H4z"></path>
    </mask>
  </defs>
  <g data-name="Layer 2">
    <g data-name="Light theme icons">
      <g mask="url(#p8z3nx88lb)">
        <path fill="url(#v006pf6f7c)" d="M0 0h32v32H0z"></path>
      </g>
      <path d="M18 10h-8V2h8zm-6-2h4V4h-4zm10 6h-6v8h8v-6h6V8h-8zm0 6h-4v-4h4zm6-10v4h-4v-4z" fill="#001d6c"></path>
    </g>
  </g>
</svg>